# xmcd
# 
# Track frame offsets:
#     150
#     18953
#     45590
#     66082
#     90271
#     123127
#     152193
#     172177
#     192060
#     237218
#     257160
# 
# Disc length: 3784
# 
# Revision: 1
# Processed by: cddbd v1.5.2PL0 Copyright (c) Steve Scherf et al.
# Submitted via: fre:ac v1.0.17
# 
DISCID=840ec60b
DTITLE=Henrik Freischlader - Night Train To Budapest
DYEAR=2013
DGENRE=Blues
TTITLE0=Point Of View
TTITLE1=Everything Is Gone
TTITLE2=Caroline
TTITLE3=A Better Man
TTITLE4=Thinking About You
TTITLE5=Down The Road
TTITLE6=Gimme All You Got
TTITLE7=If This Ain't Love
TTITLE8=My Woman
TTITLE9=Shame
TTITLE10=Your Loving Was So Good
EXTD=
EXTT0=
EXTT1=
EXTT2=
EXTT3=
EXTT4=
EXTT5=
EXTT6=
EXTT7=
EXTT8=
EXTT9=
EXTT10=
PLAYORDER=
